<?xml version="1.0" standalone="no"?>
<!DOCTYPE svg PUBLIC "-//W3C//DTD SVG 1.1//EN" "http://www.w3.org/Graphics/SVG/1.1/DTD/svg11.dtd">
<svg xmlns="http://www.w3.org/2000/svg" xmlns:xlink="http://www.w3.org/1999/xlink" version="1.1" id="Capa_1" x="0px" y="0px" viewBox="0 0 128.2 29.3" style="enable-background:new 0 0 128.2 29.3;" xml:space="preserve" width="128.1999969482422" height="29.299999237060547"> <style type="text/css"> .st0{fill:#FFFFFF;} </style> <g> <g> <g> <g> <path class="st0" d="M51.6,2.5H56l10.5,26.4h-4.3l-2.8-7.3H48.1l-2.8,7.3h-4.2L51.6,2.5z M58.1,18.1L56,12.4 c-0.8-2.2-1.7-4.7-2.2-6.3h-0.1c-0.5,1.7-1.3,4-2.2,6.4l-2.1,5.6H58.1L58.1,18.1z"/> <path class="st0" d="M66.3,22.2V9.9h3.8v11.3c0,3.3,1.4,5,4.1,5c3.3,0,4.7-2.5,4.7-6.2V9.9h3.8v16.2c0,1,0,1.8,0,2.8H79v-0.8 c0-0.4,0-1.2,0-1.6h-0.1c-1.2,1.8-3.2,2.9-6,2.9C69.1,29.3,66.3,27.2,66.3,22.2z"/> <path class="st0" d="M84.8,2.5h3.8v26.4h-3.8V2.5z"/> <path class="st0" d="M90.1,23.7c0-3.9,2.9-5,7.2-5.9l3.6-0.7c1.5-0.3,2-0.3,2-1.4c0-1.9-1.5-3.1-4.1-3.1c-2.8,0-4.1,1.4-4.4,3.5 l-3.7-0.3c0.4-3.8,3.5-6.2,8-6.2c5,0,7.8,2.2,7.8,7.1v11.4c0,0.3,0,0.7,0,0.8H103v-0.7c0-0.8,0.1-1.3,0.1-1.3H103 c-1.3,1.4-3.3,2.3-6.1,2.3C92.9,29.2,90.1,27.2,90.1,23.7z M103,21.3v-0.8c0-0.3,0-0.6,0.1-0.8c-0.5,0.2-1.2,0.3-1.9,0.4 l-2.7,0.5c-3,0.6-4.3,1-4.3,3c0,1.9,1.4,2.9,3.8,2.9C101.1,26.5,103,24.5,103,21.3z"/> <path class="st0" d="M108.5,13.3c0-1.5,0-2.4,0-3.5h3.6v1c0,0.5,0,1.3,0,1.9h0.1c1.1-2.1,3-3.3,5.6-3.3c0.4,0,0.8,0,1.1,0.1V13 c-1,0-3.5-0.3-5.1,1.6c-0.9,1-1.5,2.2-1.5,4.9v9.4h-3.7L108.5,13.3L108.5,13.3z"/> <path class="st0" d="M120.1,23.2V12.9v-3V4.7h3.8v5.2h3.9V13h-3.9v9c0,4.5,1.1,5.5,3.1,6.2V29h-4.8 C120.5,28,120.1,26.4,120.1,23.2z"/> </g> </g> </g> <g> <path class="st0" d="M1.1,18c0-4.4,3.5-8.7,8.7-8.7H25c5.2,0,8.7,4.3,8.7,8.7h1.1c0-8.9-7.1-17.4-17.4-17.4l0,0 C7.1,0.7,0,9.1,0,18H1.1z"/> <path class="st0" d="M17.4,11.5L17.4,11.5C7.1,11.5,0,20,0,28.9h1.1c0-4.4,3.5-8.7,8.7-8.7H25c5.2,0,8.7,4.3,8.7,8.7h1.1 C34.7,20,27.7,11.5,17.4,11.5z"/> </g> </g> </svg>